<mxfile host="65bd71144e" modified="2021-02-06T13:19:39.489Z" agent="5.0 (Windows NT 10.0; Win64; x64) AppleWebKit/537.36 (KHTML, like Gecko) Code/1.52.1 Chrome/83.0.4103.122 Electron/9.3.5 Safari/537.36" version="13.10.0" etag="Bf0MVR2CNdQlO6vs9KJv" type="embed" pages="7">
    <diagram name="Template" id="P_vV5n1O6jiF9iD2M_Bi">
        <mxGraphModel dx="2638" dy="1177" grid="1" gridSize="10" guides="1" tooltips="1" connect="1" arrows="1" fold="1" page="1" pageScale="1" pageWidth="827" pageHeight="1169" math="0" shadow="0">
            <root>
                <mxCell id="DbVCNmUWzxQOO6zKpIoy-0"/>
                <mxCell id="DbVCNmUWzxQOO6zKpIoy-1" parent="DbVCNmUWzxQOO6zKpIoy-0"/>
                <mxCell id="DbVCNmUWzxQOO6zKpIoy-2" value="" style="strokeWidth=1;shadow=0;dashed=0;align=center;html=1;shape=mxgraph.mockup.containers.browserWindow;rSize=0;strokeColor=#666666;strokeColor2=#008cff;strokeColor3=#c4c4c4;mainText=,;recursiveResize=0;" vertex="1" parent="DbVCNmUWzxQOO6zKpIoy-1">
                    <mxGeometry y="40" width="1280" height="720" as="geometry"/>
                </mxCell>
                <mxCell id="DbVCNmUWzxQOO6zKpIoy-3" value="Page 1" style="strokeWidth=1;shadow=0;dashed=0;align=center;html=1;shape=mxgraph.mockup.containers.anchor;fontSize=17;fontColor=#666666;align=left;" vertex="1" parent="DbVCNmUWzxQOO6zKpIoy-2">
                    <mxGeometry x="60" y="12" width="110" height="26" as="geometry"/>
                </mxCell>
                <mxCell id="DbVCNmUWzxQOO6zKpIoy-4" value="https://www.draw.io" style="strokeWidth=1;shadow=0;dashed=0;align=center;html=1;shape=mxgraph.mockup.containers.anchor;rSize=0;fontSize=17;fontColor=#666666;align=left;" vertex="1" parent="DbVCNmUWzxQOO6zKpIoy-2">
                    <mxGeometry x="130" y="60" width="250" height="26" as="geometry"/>
                </mxCell>
                <mxCell id="DbVCNmUWzxQOO6zKpIoy-5" value="Navigation" style="rounded=0;whiteSpace=wrap;html=1;fillColor=#dae8fc;strokeColor=#6c8ebf;" vertex="1" parent="DbVCNmUWzxQOO6zKpIoy-2">
                    <mxGeometry y="110" width="1280" height="60" as="geometry"/>
                </mxCell>
                <mxCell id="DbVCNmUWzxQOO6zKpIoy-6" value="" style="rounded=0;whiteSpace=wrap;html=1;" vertex="1" parent="DbVCNmUWzxQOO6zKpIoy-2">
                    <mxGeometry y="170" width="1280" height="490" as="geometry"/>
                </mxCell>
                <mxCell id="DbVCNmUWzxQOO6zKpIoy-7" value="Footer" style="rounded=0;whiteSpace=wrap;html=1;fillColor=#e1d5e7;strokeColor=#9673a6;" vertex="1" parent="DbVCNmUWzxQOO6zKpIoy-2">
                    <mxGeometry y="660" width="1280" height="60" as="geometry"/>
                </mxCell>
                <mxCell id="DbVCNmUWzxQOO6zKpIoy-8" value="" style="strokeWidth=1;shadow=0;dashed=0;align=center;html=1;shape=mxgraph.mockup.containers.browserWindow;rSize=0;strokeColor=#666666;strokeColor2=#008cff;strokeColor3=#c4c4c4;mainText=,;recursiveResize=0;" vertex="1" parent="DbVCNmUWzxQOO6zKpIoy-1">
                    <mxGeometry x="1300" y="40" width="380" height="812" as="geometry"/>
                </mxCell>
                <mxCell id="DbVCNmUWzxQOO6zKpIoy-9" value="Page 1" style="strokeWidth=1;shadow=0;dashed=0;align=center;html=1;shape=mxgraph.mockup.containers.anchor;fontSize=17;fontColor=#666666;align=left;" vertex="1" parent="DbVCNmUWzxQOO6zKpIoy-8">
                    <mxGeometry x="60" y="12" width="110" height="26" as="geometry"/>
                </mxCell>
                <mxCell id="DbVCNmUWzxQOO6zKpIoy-10" value="https://www.draw.io" style="strokeWidth=1;shadow=0;dashed=0;align=center;html=1;shape=mxgraph.mockup.containers.anchor;rSize=0;fontSize=17;fontColor=#666666;align=left;" vertex="1" parent="DbVCNmUWzxQOO6zKpIoy-8">
                    <mxGeometry x="130" y="60" width="250" height="26" as="geometry"/>
                </mxCell>
                <mxCell id="DbVCNmUWzxQOO6zKpIoy-11" value="Navigation" style="rounded=0;whiteSpace=wrap;html=1;fillColor=#dae8fc;strokeColor=#6c8ebf;" vertex="1" parent="DbVCNmUWzxQOO6zKpIoy-8">
                    <mxGeometry y="110" width="380" height="60" as="geometry"/>
                </mxCell>
                <mxCell id="DbVCNmUWzxQOO6zKpIoy-12" value="Footer" style="rounded=0;whiteSpace=wrap;html=1;fillColor=#e1d5e7;strokeColor=#9673a6;" vertex="1" parent="DbVCNmUWzxQOO6zKpIoy-8">
                    <mxGeometry y="752" width="380" height="60" as="geometry"/>
                </mxCell>
                <mxCell id="DbVCNmUWzxQOO6zKpIoy-13" value="Phone layout" style="text;html=1;align=center;verticalAlign=middle;resizable=0;points=[];autosize=1;" vertex="1" parent="DbVCNmUWzxQOO6zKpIoy-1">
                    <mxGeometry x="1442.5" y="10" width="90" height="20" as="geometry"/>
                </mxCell>
                <mxCell id="DbVCNmUWzxQOO6zKpIoy-14" value="PC layout" style="text;html=1;align=center;verticalAlign=middle;resizable=0;points=[];autosize=1;" vertex="1" parent="DbVCNmUWzxQOO6zKpIoy-1">
                    <mxGeometry x="605" y="10" width="70" height="20" as="geometry"/>
                </mxCell>
                <mxCell id="05L-NBxKEJYUxre98-Ni-13" value="Cartridge" style="shape=table;html=1;whiteSpace=wrap;startSize=30;container=1;collapsible=0;childLayout=tableLayout;fontStyle=1;align=center;" vertex="1" parent="DbVCNmUWzxQOO6zKpIoy-1">
                    <mxGeometry x="40" y="800" width="230" height="190" as="geometry"/>
                </mxCell>
                <mxCell id="05L-NBxKEJYUxre98-Ni-26" style="shape=partialRectangle;html=1;whiteSpace=wrap;collapsible=0;dropTarget=0;pointerEvents=0;fillColor=none;top=0;left=0;bottom=0;right=0;points=[[0,0.5],[1,0.5]];portConstraint=eastwest;" vertex="1" parent="05L-NBxKEJYUxre98-Ni-13">
                    <mxGeometry y="30" width="230" height="40" as="geometry"/>
                </mxCell>
                <mxCell id="05L-NBxKEJYUxre98-Ni-27" value="Project" style="shape=partialRectangle;html=1;whiteSpace=wrap;connectable=0;fillColor=none;top=0;left=0;bottom=0;right=0;overflow=hidden;" vertex="1" parent="05L-NBxKEJYUxre98-Ni-26">
                    <mxGeometry width="80" height="40" as="geometry"/>
                </mxCell>
                <mxCell id="05L-NBxKEJYUxre98-Ni-28" value="Observation web-project" style="shape=partialRectangle;html=1;whiteSpace=wrap;connectable=0;fillColor=none;top=0;left=0;bottom=0;right=0;overflow=hidden;" vertex="1" parent="05L-NBxKEJYUxre98-Ni-26">
                    <mxGeometry x="80" width="150" height="40" as="geometry"/>
                </mxCell>
                <mxCell id="05L-NBxKEJYUxre98-Ni-14" value="" style="shape=partialRectangle;html=1;whiteSpace=wrap;collapsible=0;dropTarget=0;pointerEvents=0;fillColor=none;top=0;left=0;bottom=0;right=0;points=[[0,0.5],[1,0.5]];portConstraint=eastwest;" vertex="1" parent="05L-NBxKEJYUxre98-Ni-13">
                    <mxGeometry y="70" width="230" height="40" as="geometry"/>
                </mxCell>
                <mxCell id="05L-NBxKEJYUxre98-Ni-15" value="Author" style="shape=partialRectangle;html=1;whiteSpace=wrap;connectable=0;fillColor=none;top=0;left=0;bottom=0;right=0;overflow=hidden;" vertex="1" parent="05L-NBxKEJYUxre98-Ni-14">
                    <mxGeometry width="80" height="40" as="geometry"/>
                </mxCell>
                <mxCell id="05L-NBxKEJYUxre98-Ni-17" value="Augsburger Kenan" style="shape=partialRectangle;html=1;whiteSpace=wrap;connectable=0;fillColor=none;top=0;left=0;bottom=0;right=0;overflow=hidden;" vertex="1" parent="05L-NBxKEJYUxre98-Ni-14">
                    <mxGeometry x="80" width="150" height="40" as="geometry"/>
                </mxCell>
                <mxCell id="05L-NBxKEJYUxre98-Ni-18" value="" style="shape=partialRectangle;html=1;whiteSpace=wrap;collapsible=0;dropTarget=0;pointerEvents=0;fillColor=none;top=0;left=0;bottom=0;right=0;points=[[0,0.5],[1,0.5]];portConstraint=eastwest;" vertex="1" parent="05L-NBxKEJYUxre98-Ni-13">
                    <mxGeometry y="110" width="230" height="40" as="geometry"/>
                </mxCell>
                <mxCell id="05L-NBxKEJYUxre98-Ni-19" value="Version" style="shape=partialRectangle;html=1;whiteSpace=wrap;connectable=0;fillColor=none;top=0;left=0;bottom=0;right=0;overflow=hidden;" vertex="1" parent="05L-NBxKEJYUxre98-Ni-18">
                    <mxGeometry width="80" height="40" as="geometry"/>
                </mxCell>
                <mxCell id="05L-NBxKEJYUxre98-Ni-21" value="0.1" style="shape=partialRectangle;html=1;whiteSpace=wrap;connectable=0;fillColor=none;top=0;left=0;bottom=0;right=0;overflow=hidden;" vertex="1" parent="05L-NBxKEJYUxre98-Ni-18">
                    <mxGeometry x="80" width="150" height="40" as="geometry"/>
                </mxCell>
                <mxCell id="05L-NBxKEJYUxre98-Ni-22" value="" style="shape=partialRectangle;html=1;whiteSpace=wrap;collapsible=0;dropTarget=0;pointerEvents=0;fillColor=none;top=0;left=0;bottom=0;right=0;points=[[0,0.5],[1,0.5]];portConstraint=eastwest;" vertex="1" parent="05L-NBxKEJYUxre98-Ni-13">
                    <mxGeometry y="150" width="230" height="40" as="geometry"/>
                </mxCell>
                <mxCell id="05L-NBxKEJYUxre98-Ni-23" value="Date" style="shape=partialRectangle;html=1;whiteSpace=wrap;connectable=0;fillColor=none;top=0;left=0;bottom=0;right=0;overflow=hidden;" vertex="1" parent="05L-NBxKEJYUxre98-Ni-22">
                    <mxGeometry width="80" height="40" as="geometry"/>
                </mxCell>
                <mxCell id="05L-NBxKEJYUxre98-Ni-25" value="06/02/2021" style="shape=partialRectangle;html=1;whiteSpace=wrap;connectable=0;fillColor=none;top=0;left=0;bottom=0;right=0;overflow=hidden;" vertex="1" parent="05L-NBxKEJYUxre98-Ni-22">
                    <mxGeometry x="80" width="150" height="40" as="geometry"/>
                </mxCell>
            </root>
        </mxGraphModel>
    </diagram>
    <diagram name="Homepage" id="b798FAFbLOqf7MNKGm01">
        <mxGraphModel dx="2638" dy="1177" grid="1" gridSize="10" guides="1" tooltips="1" connect="1" arrows="1" fold="1" page="1" pageScale="1" pageWidth="827" pageHeight="1169" math="0" shadow="0">
            <root>
                <mxCell id="3Mg-w72-Z-YJOdMGOumH-0"/>
                <mxCell id="3Mg-w72-Z-YJOdMGOumH-1" parent="3Mg-w72-Z-YJOdMGOumH-0"/>
                <mxCell id="3Mg-w72-Z-YJOdMGOumH-2" value="" style="strokeWidth=1;shadow=0;dashed=0;align=center;html=1;shape=mxgraph.mockup.containers.browserWindow;rSize=0;strokeColor=#666666;strokeColor2=#008cff;strokeColor3=#c4c4c4;mainText=,;recursiveResize=0;" vertex="1" parent="3Mg-w72-Z-YJOdMGOumH-1">
                    <mxGeometry y="40" width="1280" height="720" as="geometry"/>
                </mxCell>
                <mxCell id="3Mg-w72-Z-YJOdMGOumH-3" value="Page 1" style="strokeWidth=1;shadow=0;dashed=0;align=center;html=1;shape=mxgraph.mockup.containers.anchor;fontSize=17;fontColor=#666666;align=left;" vertex="1" parent="3Mg-w72-Z-YJOdMGOumH-2">
                    <mxGeometry x="60" y="12" width="110" height="26" as="geometry"/>
                </mxCell>
                <mxCell id="3Mg-w72-Z-YJOdMGOumH-4" value="https://www.draw.io" style="strokeWidth=1;shadow=0;dashed=0;align=center;html=1;shape=mxgraph.mockup.containers.anchor;rSize=0;fontSize=17;fontColor=#666666;align=left;" vertex="1" parent="3Mg-w72-Z-YJOdMGOumH-2">
                    <mxGeometry x="130" y="60" width="250" height="26" as="geometry"/>
                </mxCell>
                <mxCell id="3Mg-w72-Z-YJOdMGOumH-10" value="Navigation" style="rounded=0;whiteSpace=wrap;html=1;fillColor=#dae8fc;strokeColor=#6c8ebf;" vertex="1" parent="3Mg-w72-Z-YJOdMGOumH-2">
                    <mxGeometry y="110" width="1280" height="60" as="geometry"/>
                </mxCell>
                <mxCell id="3Mg-w72-Z-YJOdMGOumH-16" value="" style="rounded=0;whiteSpace=wrap;html=1;" vertex="1" parent="3Mg-w72-Z-YJOdMGOumH-2">
                    <mxGeometry y="170" width="1280" height="490" as="geometry"/>
                </mxCell>
                <mxCell id="3Mg-w72-Z-YJOdMGOumH-17" value="Footer" style="rounded=0;whiteSpace=wrap;html=1;fillColor=#e1d5e7;strokeColor=#9673a6;" vertex="1" parent="3Mg-w72-Z-YJOdMGOumH-2">
                    <mxGeometry y="660" width="1280" height="60" as="geometry"/>
                </mxCell>
                <mxCell id="ED8TFWvjui0lBpYNb3ZO-0" value="Recent / trending publication" style="rounded=0;whiteSpace=wrap;html=1;fillColor=#d5e8d4;strokeColor=#82b366;" vertex="1" parent="3Mg-w72-Z-YJOdMGOumH-2">
                    <mxGeometry x="80" y="170" width="1120" height="490" as="geometry"/>
                </mxCell>
                <mxCell id="ED8TFWvjui0lBpYNb3ZO-1" value="Filtering" style="whiteSpace=wrap;html=1;fillColor=#ffe6cc;strokeColor=#d79b00;" vertex="1" parent="3Mg-w72-Z-YJOdMGOumH-2">
                    <mxGeometry y="170" width="80" height="490" as="geometry"/>
                </mxCell>
                <mxCell id="3Mg-w72-Z-YJOdMGOumH-5" value="" style="strokeWidth=1;shadow=0;dashed=0;align=center;html=1;shape=mxgraph.mockup.containers.browserWindow;rSize=0;strokeColor=#666666;strokeColor2=#008cff;strokeColor3=#c4c4c4;mainText=,;recursiveResize=0;" vertex="1" parent="3Mg-w72-Z-YJOdMGOumH-1">
                    <mxGeometry x="1300" y="40" width="380" height="812" as="geometry"/>
                </mxCell>
                <mxCell id="ED8TFWvjui0lBpYNb3ZO-3" value="Recent / trending publication" style="rounded=0;whiteSpace=wrap;html=1;fillColor=#d5e8d4;strokeColor=#82b366;" vertex="1" parent="3Mg-w72-Z-YJOdMGOumH-5">
                    <mxGeometry y="230" width="380" height="530" as="geometry"/>
                </mxCell>
                <mxCell id="3Mg-w72-Z-YJOdMGOumH-6" value="Page 1" style="strokeWidth=1;shadow=0;dashed=0;align=center;html=1;shape=mxgraph.mockup.containers.anchor;fontSize=17;fontColor=#666666;align=left;" vertex="1" parent="3Mg-w72-Z-YJOdMGOumH-5">
                    <mxGeometry x="60" y="12" width="110" height="26" as="geometry"/>
                </mxCell>
                <mxCell id="3Mg-w72-Z-YJOdMGOumH-7" value="https://www.draw.io" style="strokeWidth=1;shadow=0;dashed=0;align=center;html=1;shape=mxgraph.mockup.containers.anchor;rSize=0;fontSize=17;fontColor=#666666;align=left;" vertex="1" parent="3Mg-w72-Z-YJOdMGOumH-5">
                    <mxGeometry x="130" y="60" width="250" height="26" as="geometry"/>
                </mxCell>
                <mxCell id="3Mg-w72-Z-YJOdMGOumH-15" value="Navigation" style="rounded=0;whiteSpace=wrap;html=1;fillColor=#dae8fc;strokeColor=#6c8ebf;" vertex="1" parent="3Mg-w72-Z-YJOdMGOumH-5">
                    <mxGeometry y="110" width="380" height="60" as="geometry"/>
                </mxCell>
                <mxCell id="3Mg-w72-Z-YJOdMGOumH-18" value="Footer" style="rounded=0;whiteSpace=wrap;html=1;fillColor=#e1d5e7;strokeColor=#9673a6;" vertex="1" parent="3Mg-w72-Z-YJOdMGOumH-5">
                    <mxGeometry y="752" width="380" height="60" as="geometry"/>
                </mxCell>
                <mxCell id="ED8TFWvjui0lBpYNb3ZO-2" value="Filtering" style="whiteSpace=wrap;html=1;fillColor=#ffe6cc;strokeColor=#d79b00;" vertex="1" parent="3Mg-w72-Z-YJOdMGOumH-5">
                    <mxGeometry y="170" width="380" height="60" as="geometry"/>
                </mxCell>
                <mxCell id="3Mg-w72-Z-YJOdMGOumH-8" value="Phone layout" style="text;html=1;align=center;verticalAlign=middle;resizable=0;points=[];autosize=1;" vertex="1" parent="3Mg-w72-Z-YJOdMGOumH-1">
                    <mxGeometry x="1442.5" y="10" width="90" height="20" as="geometry"/>
                </mxCell>
                <mxCell id="3Mg-w72-Z-YJOdMGOumH-9" value="PC layout" style="text;html=1;align=center;verticalAlign=middle;resizable=0;points=[];autosize=1;" vertex="1" parent="3Mg-w72-Z-YJOdMGOumH-1">
                    <mxGeometry x="605" y="10" width="70" height="20" as="geometry"/>
                </mxCell>
                <mxCell id="lsemPWTlPcvvQQy1MY7A-0" value="Cartridge" style="shape=table;html=1;whiteSpace=wrap;startSize=30;container=1;collapsible=0;childLayout=tableLayout;fontStyle=1;align=center;" vertex="1" parent="3Mg-w72-Z-YJOdMGOumH-1">
                    <mxGeometry x="40" y="800" width="230" height="190" as="geometry"/>
                </mxCell>
                <mxCell id="lsemPWTlPcvvQQy1MY7A-1" style="shape=partialRectangle;html=1;whiteSpace=wrap;collapsible=0;dropTarget=0;pointerEvents=0;fillColor=none;top=0;left=0;bottom=0;right=0;points=[[0,0.5],[1,0.5]];portConstraint=eastwest;" vertex="1" parent="lsemPWTlPcvvQQy1MY7A-0">
                    <mxGeometry y="30" width="230" height="40" as="geometry"/>
                </mxCell>
                <mxCell id="lsemPWTlPcvvQQy1MY7A-2" value="Project" style="shape=partialRectangle;html=1;whiteSpace=wrap;connectable=0;fillColor=none;top=0;left=0;bottom=0;right=0;overflow=hidden;" vertex="1" parent="lsemPWTlPcvvQQy1MY7A-1">
                    <mxGeometry width="80" height="40" as="geometry"/>
                </mxCell>
                <mxCell id="lsemPWTlPcvvQQy1MY7A-3" value="Observation web-project" style="shape=partialRectangle;html=1;whiteSpace=wrap;connectable=0;fillColor=none;top=0;left=0;bottom=0;right=0;overflow=hidden;" vertex="1" parent="lsemPWTlPcvvQQy1MY7A-1">
                    <mxGeometry x="80" width="150" height="40" as="geometry"/>
                </mxCell>
                <mxCell id="lsemPWTlPcvvQQy1MY7A-4" value="" style="shape=partialRectangle;html=1;whiteSpace=wrap;collapsible=0;dropTarget=0;pointerEvents=0;fillColor=none;top=0;left=0;bottom=0;right=0;points=[[0,0.5],[1,0.5]];portConstraint=eastwest;" vertex="1" parent="lsemPWTlPcvvQQy1MY7A-0">
                    <mxGeometry y="70" width="230" height="40" as="geometry"/>
                </mxCell>
                <mxCell id="lsemPWTlPcvvQQy1MY7A-5" value="Author" style="shape=partialRectangle;html=1;whiteSpace=wrap;connectable=0;fillColor=none;top=0;left=0;bottom=0;right=0;overflow=hidden;" vertex="1" parent="lsemPWTlPcvvQQy1MY7A-4">
                    <mxGeometry width="80" height="40" as="geometry"/>
                </mxCell>
                <mxCell id="lsemPWTlPcvvQQy1MY7A-6" value="Augsburger Kenan" style="shape=partialRectangle;html=1;whiteSpace=wrap;connectable=0;fillColor=none;top=0;left=0;bottom=0;right=0;overflow=hidden;" vertex="1" parent="lsemPWTlPcvvQQy1MY7A-4">
                    <mxGeometry x="80" width="150" height="40" as="geometry"/>
                </mxCell>
                <mxCell id="lsemPWTlPcvvQQy1MY7A-7" value="" style="shape=partialRectangle;html=1;whiteSpace=wrap;collapsible=0;dropTarget=0;pointerEvents=0;fillColor=none;top=0;left=0;bottom=0;right=0;points=[[0,0.5],[1,0.5]];portConstraint=eastwest;" vertex="1" parent="lsemPWTlPcvvQQy1MY7A-0">
                    <mxGeometry y="110" width="230" height="40" as="geometry"/>
                </mxCell>
                <mxCell id="lsemPWTlPcvvQQy1MY7A-8" value="Version" style="shape=partialRectangle;html=1;whiteSpace=wrap;connectable=0;fillColor=none;top=0;left=0;bottom=0;right=0;overflow=hidden;" vertex="1" parent="lsemPWTlPcvvQQy1MY7A-7">
                    <mxGeometry width="80" height="40" as="geometry"/>
                </mxCell>
                <mxCell id="lsemPWTlPcvvQQy1MY7A-9" value="0.1" style="shape=partialRectangle;html=1;whiteSpace=wrap;connectable=0;fillColor=none;top=0;left=0;bottom=0;right=0;overflow=hidden;" vertex="1" parent="lsemPWTlPcvvQQy1MY7A-7">
                    <mxGeometry x="80" width="150" height="40" as="geometry"/>
                </mxCell>
                <mxCell id="lsemPWTlPcvvQQy1MY7A-10" value="" style="shape=partialRectangle;html=1;whiteSpace=wrap;collapsible=0;dropTarget=0;pointerEvents=0;fillColor=none;top=0;left=0;bottom=0;right=0;points=[[0,0.5],[1,0.5]];portConstraint=eastwest;" vertex="1" parent="lsemPWTlPcvvQQy1MY7A-0">
                    <mxGeometry y="150" width="230" height="40" as="geometry"/>
                </mxCell>
                <mxCell id="lsemPWTlPcvvQQy1MY7A-11" value="Date" style="shape=partialRectangle;html=1;whiteSpace=wrap;connectable=0;fillColor=none;top=0;left=0;bottom=0;right=0;overflow=hidden;" vertex="1" parent="lsemPWTlPcvvQQy1MY7A-10">
                    <mxGeometry width="80" height="40" as="geometry"/>
                </mxCell>
                <mxCell id="lsemPWTlPcvvQQy1MY7A-12" value="06/02/2021" style="shape=partialRectangle;html=1;whiteSpace=wrap;connectable=0;fillColor=none;top=0;left=0;bottom=0;right=0;overflow=hidden;" vertex="1" parent="lsemPWTlPcvvQQy1MY7A-10">
                    <mxGeometry x="80" width="150" height="40" as="geometry"/>
                </mxCell>
            </root>
        </mxGraphModel>
    </diagram>
    <diagram name="Publication" id="RNbAE0tWL1PWv4p3rtXo">
        <mxGraphModel dx="2638" dy="1177" grid="1" gridSize="10" guides="1" tooltips="1" connect="1" arrows="1" fold="1" page="1" pageScale="1" pageWidth="827" pageHeight="1169" math="0" shadow="0">
            <root>
                <mxCell id="E1ElvgdIUvoDye1ErghW-0"/>
                <mxCell id="E1ElvgdIUvoDye1ErghW-1" parent="E1ElvgdIUvoDye1ErghW-0"/>
                <mxCell id="E1ElvgdIUvoDye1ErghW-2" value="" style="strokeWidth=1;shadow=0;dashed=0;align=center;html=1;shape=mxgraph.mockup.containers.browserWindow;rSize=0;strokeColor=#666666;strokeColor2=#008cff;strokeColor3=#c4c4c4;mainText=,;recursiveResize=0;" vertex="1" parent="E1ElvgdIUvoDye1ErghW-1">
                    <mxGeometry y="40" width="1280" height="720" as="geometry"/>
                </mxCell>
                <mxCell id="E1ElvgdIUvoDye1ErghW-3" value="Page 1" style="strokeWidth=1;shadow=0;dashed=0;align=center;html=1;shape=mxgraph.mockup.containers.anchor;fontSize=17;fontColor=#666666;align=left;" vertex="1" parent="E1ElvgdIUvoDye1ErghW-2">
                    <mxGeometry x="60" y="12" width="110" height="26" as="geometry"/>
                </mxCell>
                <mxCell id="E1ElvgdIUvoDye1ErghW-4" value="https://www.draw.io" style="strokeWidth=1;shadow=0;dashed=0;align=center;html=1;shape=mxgraph.mockup.containers.anchor;rSize=0;fontSize=17;fontColor=#666666;align=left;" vertex="1" parent="E1ElvgdIUvoDye1ErghW-2">
                    <mxGeometry x="130" y="60" width="250" height="26" as="geometry"/>
                </mxCell>
                <mxCell id="E1ElvgdIUvoDye1ErghW-5" value="Navigation" style="rounded=0;whiteSpace=wrap;html=1;fillColor=#dae8fc;strokeColor=#6c8ebf;" vertex="1" parent="E1ElvgdIUvoDye1ErghW-2">
                    <mxGeometry y="110" width="1280" height="60" as="geometry"/>
                </mxCell>
                <mxCell id="E1ElvgdIUvoDye1ErghW-6" value="" style="rounded=0;whiteSpace=wrap;html=1;" vertex="1" parent="E1ElvgdIUvoDye1ErghW-2">
                    <mxGeometry y="170" width="1280" height="490" as="geometry"/>
                </mxCell>
                <mxCell id="E1ElvgdIUvoDye1ErghW-7" value="Footer" style="rounded=0;whiteSpace=wrap;html=1;fillColor=#e1d5e7;strokeColor=#9673a6;" vertex="1" parent="E1ElvgdIUvoDye1ErghW-2">
                    <mxGeometry y="660" width="1280" height="60" as="geometry"/>
                </mxCell>
                <mxCell id="jRvApJU8n31L3q4iRZfM-0" value="Publication image" style="rounded=0;whiteSpace=wrap;html=1;fillColor=#d5e8d4;strokeColor=#82b366;" vertex="1" parent="E1ElvgdIUvoDye1ErghW-2">
                    <mxGeometry x="80" y="170" width="560" height="490" as="geometry"/>
                </mxCell>
                <mxCell id="jRvApJU8n31L3q4iRZfM-1" value="Information / possible interactions" style="rounded=0;whiteSpace=wrap;html=1;fillColor=#ffe6cc;strokeColor=#d79b00;" vertex="1" parent="E1ElvgdIUvoDye1ErghW-2">
                    <mxGeometry x="640" y="170" width="560" height="490" as="geometry"/>
                </mxCell>
                <mxCell id="E1ElvgdIUvoDye1ErghW-8" value="" style="strokeWidth=1;shadow=0;dashed=0;align=center;html=1;shape=mxgraph.mockup.containers.browserWindow;rSize=0;strokeColor=#666666;strokeColor2=#008cff;strokeColor3=#c4c4c4;mainText=,;recursiveResize=0;" vertex="1" parent="E1ElvgdIUvoDye1ErghW-1">
                    <mxGeometry x="1300" y="40" width="380" height="1120" as="geometry"/>
                </mxCell>
                <mxCell id="E1ElvgdIUvoDye1ErghW-9" value="Page 1" style="strokeWidth=1;shadow=0;dashed=0;align=center;html=1;shape=mxgraph.mockup.containers.anchor;fontSize=17;fontColor=#666666;align=left;" vertex="1" parent="E1ElvgdIUvoDye1ErghW-8">
                    <mxGeometry x="60" y="12" width="110" height="26" as="geometry"/>
                </mxCell>
                <mxCell id="E1ElvgdIUvoDye1ErghW-10" value="https://www.draw.io" style="strokeWidth=1;shadow=0;dashed=0;align=center;html=1;shape=mxgraph.mockup.containers.anchor;rSize=0;fontSize=17;fontColor=#666666;align=left;" vertex="1" parent="E1ElvgdIUvoDye1ErghW-8">
                    <mxGeometry x="130" y="60" width="250" height="26" as="geometry"/>
                </mxCell>
                <mxCell id="E1ElvgdIUvoDye1ErghW-11" value="Navigation" style="rounded=0;whiteSpace=wrap;html=1;fillColor=#dae8fc;strokeColor=#6c8ebf;" vertex="1" parent="E1ElvgdIUvoDye1ErghW-8">
                    <mxGeometry y="110" width="380" height="60" as="geometry"/>
                </mxCell>
                <mxCell id="E1ElvgdIUvoDye1ErghW-12" value="Footer" style="rounded=0;whiteSpace=wrap;html=1;fillColor=#e1d5e7;strokeColor=#9673a6;" vertex="1" parent="E1ElvgdIUvoDye1ErghW-8">
                    <mxGeometry y="1060" width="380" height="60" as="geometry"/>
                </mxCell>
                <mxCell id="jRvApJU8n31L3q4iRZfM-2" value="Publication image" style="rounded=0;whiteSpace=wrap;html=1;fillColor=#d5e8d4;strokeColor=#82b366;" vertex="1" parent="E1ElvgdIUvoDye1ErghW-8">
                    <mxGeometry y="170" width="380" height="580" as="geometry"/>
                </mxCell>
                <mxCell id="jRvApJU8n31L3q4iRZfM-3" value="Information / possible interactions" style="rounded=0;whiteSpace=wrap;html=1;fillColor=#ffe6cc;strokeColor=#d79b00;" vertex="1" parent="E1ElvgdIUvoDye1ErghW-8">
                    <mxGeometry y="750" width="380" height="310" as="geometry"/>
                </mxCell>
                <mxCell id="E1ElvgdIUvoDye1ErghW-13" value="Phone layout" style="text;html=1;align=center;verticalAlign=middle;resizable=0;points=[];autosize=1;" vertex="1" parent="E1ElvgdIUvoDye1ErghW-1">
                    <mxGeometry x="1442.5" y="10" width="90" height="20" as="geometry"/>
                </mxCell>
                <mxCell id="E1ElvgdIUvoDye1ErghW-14" value="PC layout" style="text;html=1;align=center;verticalAlign=middle;resizable=0;points=[];autosize=1;" vertex="1" parent="E1ElvgdIUvoDye1ErghW-1">
                    <mxGeometry x="605" y="10" width="70" height="20" as="geometry"/>
                </mxCell>
                <mxCell id="38cHs6VPOf78Gg0rdxiq-0" value="Cartridge" style="shape=table;html=1;whiteSpace=wrap;startSize=30;container=1;collapsible=0;childLayout=tableLayout;fontStyle=1;align=center;" vertex="1" parent="E1ElvgdIUvoDye1ErghW-1">
                    <mxGeometry x="40" y="800" width="230" height="190" as="geometry"/>
                </mxCell>
                <mxCell id="38cHs6VPOf78Gg0rdxiq-1" style="shape=partialRectangle;html=1;whiteSpace=wrap;collapsible=0;dropTarget=0;pointerEvents=0;fillColor=none;top=0;left=0;bottom=0;right=0;points=[[0,0.5],[1,0.5]];portConstraint=eastwest;" vertex="1" parent="38cHs6VPOf78Gg0rdxiq-0">
                    <mxGeometry y="30" width="230" height="40" as="geometry"/>
                </mxCell>
                <mxCell id="38cHs6VPOf78Gg0rdxiq-2" value="Project" style="shape=partialRectangle;html=1;whiteSpace=wrap;connectable=0;fillColor=none;top=0;left=0;bottom=0;right=0;overflow=hidden;" vertex="1" parent="38cHs6VPOf78Gg0rdxiq-1">
                    <mxGeometry width="80" height="40" as="geometry"/>
                </mxCell>
                <mxCell id="38cHs6VPOf78Gg0rdxiq-3" value="Observation web-project" style="shape=partialRectangle;html=1;whiteSpace=wrap;connectable=0;fillColor=none;top=0;left=0;bottom=0;right=0;overflow=hidden;" vertex="1" parent="38cHs6VPOf78Gg0rdxiq-1">
                    <mxGeometry x="80" width="150" height="40" as="geometry"/>
                </mxCell>
                <mxCell id="38cHs6VPOf78Gg0rdxiq-4" value="" style="shape=partialRectangle;html=1;whiteSpace=wrap;collapsible=0;dropTarget=0;pointerEvents=0;fillColor=none;top=0;left=0;bottom=0;right=0;points=[[0,0.5],[1,0.5]];portConstraint=eastwest;" vertex="1" parent="38cHs6VPOf78Gg0rdxiq-0">
                    <mxGeometry y="70" width="230" height="40" as="geometry"/>
                </mxCell>
                <mxCell id="38cHs6VPOf78Gg0rdxiq-5" value="Author" style="shape=partialRectangle;html=1;whiteSpace=wrap;connectable=0;fillColor=none;top=0;left=0;bottom=0;right=0;overflow=hidden;" vertex="1" parent="38cHs6VPOf78Gg0rdxiq-4">
                    <mxGeometry width="80" height="40" as="geometry"/>
                </mxCell>
                <mxCell id="38cHs6VPOf78Gg0rdxiq-6" value="Augsburger Kenan" style="shape=partialRectangle;html=1;whiteSpace=wrap;connectable=0;fillColor=none;top=0;left=0;bottom=0;right=0;overflow=hidden;" vertex="1" parent="38cHs6VPOf78Gg0rdxiq-4">
                    <mxGeometry x="80" width="150" height="40" as="geometry"/>
                </mxCell>
                <mxCell id="38cHs6VPOf78Gg0rdxiq-7" value="" style="shape=partialRectangle;html=1;whiteSpace=wrap;collapsible=0;dropTarget=0;pointerEvents=0;fillColor=none;top=0;left=0;bottom=0;right=0;points=[[0,0.5],[1,0.5]];portConstraint=eastwest;" vertex="1" parent="38cHs6VPOf78Gg0rdxiq-0">
                    <mxGeometry y="110" width="230" height="40" as="geometry"/>
                </mxCell>
                <mxCell id="38cHs6VPOf78Gg0rdxiq-8" value="Version" style="shape=partialRectangle;html=1;whiteSpace=wrap;connectable=0;fillColor=none;top=0;left=0;bottom=0;right=0;overflow=hidden;" vertex="1" parent="38cHs6VPOf78Gg0rdxiq-7">
                    <mxGeometry width="80" height="40" as="geometry"/>
                </mxCell>
                <mxCell id="38cHs6VPOf78Gg0rdxiq-9" value="0.1" style="shape=partialRectangle;html=1;whiteSpace=wrap;connectable=0;fillColor=none;top=0;left=0;bottom=0;right=0;overflow=hidden;" vertex="1" parent="38cHs6VPOf78Gg0rdxiq-7">
                    <mxGeometry x="80" width="150" height="40" as="geometry"/>
                </mxCell>
                <mxCell id="38cHs6VPOf78Gg0rdxiq-10" value="" style="shape=partialRectangle;html=1;whiteSpace=wrap;collapsible=0;dropTarget=0;pointerEvents=0;fillColor=none;top=0;left=0;bottom=0;right=0;points=[[0,0.5],[1,0.5]];portConstraint=eastwest;" vertex="1" parent="38cHs6VPOf78Gg0rdxiq-0">
                    <mxGeometry y="150" width="230" height="40" as="geometry"/>
                </mxCell>
                <mxCell id="38cHs6VPOf78Gg0rdxiq-11" value="Date" style="shape=partialRectangle;html=1;whiteSpace=wrap;connectable=0;fillColor=none;top=0;left=0;bottom=0;right=0;overflow=hidden;" vertex="1" parent="38cHs6VPOf78Gg0rdxiq-10">
                    <mxGeometry width="80" height="40" as="geometry"/>
                </mxCell>
                <mxCell id="38cHs6VPOf78Gg0rdxiq-12" value="06/02/2021" style="shape=partialRectangle;html=1;whiteSpace=wrap;connectable=0;fillColor=none;top=0;left=0;bottom=0;right=0;overflow=hidden;" vertex="1" parent="38cHs6VPOf78Gg0rdxiq-10">
                    <mxGeometry x="80" width="150" height="40" as="geometry"/>
                </mxCell>
            </root>
        </mxGraphModel>
    </diagram>
    <diagram name="New / edit publication" id="adcNZGxFY5MfSY5ytZDO">
        <mxGraphModel dx="2638" dy="1177" grid="1" gridSize="10" guides="1" tooltips="1" connect="1" arrows="1" fold="1" page="1" pageScale="1" pageWidth="827" pageHeight="1169" math="0" shadow="0">
            <root>
                <mxCell id="HMe1PB25OHXCyCDTiiqV-0"/>
                <mxCell id="HMe1PB25OHXCyCDTiiqV-1" parent="HMe1PB25OHXCyCDTiiqV-0"/>
                <mxCell id="HMe1PB25OHXCyCDTiiqV-2" value="" style="strokeWidth=1;shadow=0;dashed=0;align=center;html=1;shape=mxgraph.mockup.containers.browserWindow;rSize=0;strokeColor=#666666;strokeColor2=#008cff;strokeColor3=#c4c4c4;mainText=,;recursiveResize=0;" vertex="1" parent="HMe1PB25OHXCyCDTiiqV-1">
                    <mxGeometry y="40" width="1280" height="720" as="geometry"/>
                </mxCell>
                <mxCell id="HMe1PB25OHXCyCDTiiqV-3" value="Page 1" style="strokeWidth=1;shadow=0;dashed=0;align=center;html=1;shape=mxgraph.mockup.containers.anchor;fontSize=17;fontColor=#666666;align=left;" vertex="1" parent="HMe1PB25OHXCyCDTiiqV-2">
                    <mxGeometry x="60" y="12" width="110" height="26" as="geometry"/>
                </mxCell>
                <mxCell id="HMe1PB25OHXCyCDTiiqV-4" value="https://www.draw.io" style="strokeWidth=1;shadow=0;dashed=0;align=center;html=1;shape=mxgraph.mockup.containers.anchor;rSize=0;fontSize=17;fontColor=#666666;align=left;" vertex="1" parent="HMe1PB25OHXCyCDTiiqV-2">
                    <mxGeometry x="130" y="60" width="250" height="26" as="geometry"/>
                </mxCell>
                <mxCell id="HMe1PB25OHXCyCDTiiqV-5" value="Navigation" style="rounded=0;whiteSpace=wrap;html=1;fillColor=#dae8fc;strokeColor=#6c8ebf;" vertex="1" parent="HMe1PB25OHXCyCDTiiqV-2">
                    <mxGeometry y="110" width="1280" height="60" as="geometry"/>
                </mxCell>
                <mxCell id="HMe1PB25OHXCyCDTiiqV-6" value="" style="rounded=0;whiteSpace=wrap;html=1;" vertex="1" parent="HMe1PB25OHXCyCDTiiqV-2">
                    <mxGeometry y="170" width="1280" height="490" as="geometry"/>
                </mxCell>
                <mxCell id="HMe1PB25OHXCyCDTiiqV-7" value="Footer" style="rounded=0;whiteSpace=wrap;html=1;fillColor=#e1d5e7;strokeColor=#9673a6;" vertex="1" parent="HMe1PB25OHXCyCDTiiqV-2">
                    <mxGeometry y="660" width="1280" height="60" as="geometry"/>
                </mxCell>
                <mxCell id="ztEdvrTup8DXe3i0MW6o-0" value="image(s)" style="rounded=0;whiteSpace=wrap;html=1;fillColor=#d5e8d4;strokeColor=#82b366;" vertex="1" parent="HMe1PB25OHXCyCDTiiqV-2">
                    <mxGeometry x="80" y="170" width="560" height="490" as="geometry"/>
                </mxCell>
                <mxCell id="6vACgjwvhB4BsF9kG8fb-1" value="Title" style="rounded=0;whiteSpace=wrap;html=1;fillColor=#ffe6cc;strokeColor=#d79b00;" vertex="1" parent="HMe1PB25OHXCyCDTiiqV-2">
                    <mxGeometry x="640" y="170" width="560" height="50" as="geometry"/>
                </mxCell>
                <mxCell id="6vACgjwvhB4BsF9kG8fb-2" value="Description" style="rounded=0;whiteSpace=wrap;html=1;fillColor=#ffe6cc;strokeColor=#d79b00;" vertex="1" parent="HMe1PB25OHXCyCDTiiqV-2">
                    <mxGeometry x="640" y="220" width="350" height="130" as="geometry"/>
                </mxCell>
                <mxCell id="6vACgjwvhB4BsF9kG8fb-3" value="Tags" style="rounded=0;whiteSpace=wrap;html=1;fillColor=#ffe6cc;strokeColor=#d79b00;" vertex="1" parent="HMe1PB25OHXCyCDTiiqV-2">
                    <mxGeometry x="990" y="220" width="210" height="130" as="geometry"/>
                </mxCell>
                <mxCell id="6vACgjwvhB4BsF9kG8fb-4" value="Map" style="rounded=0;whiteSpace=wrap;html=1;fillColor=#ffe6cc;strokeColor=#d79b00;" vertex="1" parent="HMe1PB25OHXCyCDTiiqV-2">
                    <mxGeometry x="640" y="350" width="560" height="260" as="geometry"/>
                </mxCell>
                <mxCell id="6vACgjwvhB4BsF9kG8fb-5" value="Confirmation" style="rounded=0;whiteSpace=wrap;html=1;fillColor=#f8cecc;strokeColor=#b85450;" vertex="1" parent="HMe1PB25OHXCyCDTiiqV-2">
                    <mxGeometry x="640" y="610" width="560" height="50" as="geometry"/>
                </mxCell>
                <mxCell id="HMe1PB25OHXCyCDTiiqV-8" value="" style="strokeWidth=1;shadow=0;dashed=0;align=center;html=1;shape=mxgraph.mockup.containers.browserWindow;rSize=0;strokeColor=#666666;strokeColor2=#008cff;strokeColor3=#c4c4c4;mainText=,;recursiveResize=0;" vertex="1" parent="HMe1PB25OHXCyCDTiiqV-1">
                    <mxGeometry x="1300" y="40" width="380" height="1380" as="geometry"/>
                </mxCell>
                <mxCell id="HMe1PB25OHXCyCDTiiqV-9" value="Page 1" style="strokeWidth=1;shadow=0;dashed=0;align=center;html=1;shape=mxgraph.mockup.containers.anchor;fontSize=17;fontColor=#666666;align=left;" vertex="1" parent="HMe1PB25OHXCyCDTiiqV-8">
                    <mxGeometry x="60" y="12" width="110" height="26" as="geometry"/>
                </mxCell>
                <mxCell id="HMe1PB25OHXCyCDTiiqV-10" value="https://www.draw.io" style="strokeWidth=1;shadow=0;dashed=0;align=center;html=1;shape=mxgraph.mockup.containers.anchor;rSize=0;fontSize=17;fontColor=#666666;align=left;" vertex="1" parent="HMe1PB25OHXCyCDTiiqV-8">
                    <mxGeometry x="130" y="60" width="250" height="26" as="geometry"/>
                </mxCell>
                <mxCell id="HMe1PB25OHXCyCDTiiqV-11" value="Navigation" style="rounded=0;whiteSpace=wrap;html=1;fillColor=#dae8fc;strokeColor=#6c8ebf;" vertex="1" parent="HMe1PB25OHXCyCDTiiqV-8">
                    <mxGeometry y="110" width="380" height="60" as="geometry"/>
                </mxCell>
                <mxCell id="HMe1PB25OHXCyCDTiiqV-12" value="Footer" style="rounded=0;whiteSpace=wrap;html=1;fillColor=#e1d5e7;strokeColor=#9673a6;" vertex="1" parent="HMe1PB25OHXCyCDTiiqV-8">
                    <mxGeometry y="1320" width="380" height="60" as="geometry"/>
                </mxCell>
                <mxCell id="6vACgjwvhB4BsF9kG8fb-6" value="image(s)" style="rounded=0;whiteSpace=wrap;html=1;fillColor=#d5e8d4;strokeColor=#82b366;" vertex="1" parent="HMe1PB25OHXCyCDTiiqV-8">
                    <mxGeometry y="170" width="380" height="480" as="geometry"/>
                </mxCell>
                <mxCell id="6vACgjwvhB4BsF9kG8fb-7" value="Title" style="rounded=0;whiteSpace=wrap;html=1;fillColor=#ffe6cc;strokeColor=#d79b00;" vertex="1" parent="HMe1PB25OHXCyCDTiiqV-8">
                    <mxGeometry y="650" width="380" height="50" as="geometry"/>
                </mxCell>
                <mxCell id="6vACgjwvhB4BsF9kG8fb-8" value="Description" style="rounded=0;whiteSpace=wrap;html=1;fillColor=#ffe6cc;strokeColor=#d79b00;" vertex="1" parent="HMe1PB25OHXCyCDTiiqV-8">
                    <mxGeometry y="700" width="380" height="150" as="geometry"/>
                </mxCell>
                <mxCell id="6vACgjwvhB4BsF9kG8fb-9" value="Tags" style="rounded=0;whiteSpace=wrap;html=1;fillColor=#ffe6cc;strokeColor=#d79b00;" vertex="1" parent="HMe1PB25OHXCyCDTiiqV-8">
                    <mxGeometry y="850" width="380" height="130" as="geometry"/>
                </mxCell>
                <mxCell id="6vACgjwvhB4BsF9kG8fb-10" value="Map" style="rounded=0;whiteSpace=wrap;html=1;fillColor=#ffe6cc;strokeColor=#d79b00;" vertex="1" parent="HMe1PB25OHXCyCDTiiqV-8">
                    <mxGeometry y="980" width="380" height="340" as="geometry"/>
                </mxCell>
                <mxCell id="HMe1PB25OHXCyCDTiiqV-13" value="Phone layout" style="text;html=1;align=center;verticalAlign=middle;resizable=0;points=[];autosize=1;" vertex="1" parent="HMe1PB25OHXCyCDTiiqV-1">
                    <mxGeometry x="1442.5" y="10" width="90" height="20" as="geometry"/>
                </mxCell>
                <mxCell id="HMe1PB25OHXCyCDTiiqV-14" value="PC layout" style="text;html=1;align=center;verticalAlign=middle;resizable=0;points=[];autosize=1;" vertex="1" parent="HMe1PB25OHXCyCDTiiqV-1">
                    <mxGeometry x="605" y="10" width="70" height="20" as="geometry"/>
                </mxCell>
                <mxCell id="iDe7jatu5BBJkbHUPGmz-0" value="Cartridge" style="shape=table;html=1;whiteSpace=wrap;startSize=30;container=1;collapsible=0;childLayout=tableLayout;fontStyle=1;align=center;" vertex="1" parent="HMe1PB25OHXCyCDTiiqV-1">
                    <mxGeometry x="40" y="800" width="230" height="190" as="geometry"/>
                </mxCell>
                <mxCell id="iDe7jatu5BBJkbHUPGmz-1" style="shape=partialRectangle;html=1;whiteSpace=wrap;collapsible=0;dropTarget=0;pointerEvents=0;fillColor=none;top=0;left=0;bottom=0;right=0;points=[[0,0.5],[1,0.5]];portConstraint=eastwest;" vertex="1" parent="iDe7jatu5BBJkbHUPGmz-0">
                    <mxGeometry y="30" width="230" height="40" as="geometry"/>
                </mxCell>
                <mxCell id="iDe7jatu5BBJkbHUPGmz-2" value="Project" style="shape=partialRectangle;html=1;whiteSpace=wrap;connectable=0;fillColor=none;top=0;left=0;bottom=0;right=0;overflow=hidden;" vertex="1" parent="iDe7jatu5BBJkbHUPGmz-1">
                    <mxGeometry width="80" height="40" as="geometry"/>
                </mxCell>
                <mxCell id="iDe7jatu5BBJkbHUPGmz-3" value="Observation web-project" style="shape=partialRectangle;html=1;whiteSpace=wrap;connectable=0;fillColor=none;top=0;left=0;bottom=0;right=0;overflow=hidden;" vertex="1" parent="iDe7jatu5BBJkbHUPGmz-1">
                    <mxGeometry x="80" width="150" height="40" as="geometry"/>
                </mxCell>
                <mxCell id="iDe7jatu5BBJkbHUPGmz-4" value="" style="shape=partialRectangle;html=1;whiteSpace=wrap;collapsible=0;dropTarget=0;pointerEvents=0;fillColor=none;top=0;left=0;bottom=0;right=0;points=[[0,0.5],[1,0.5]];portConstraint=eastwest;" vertex="1" parent="iDe7jatu5BBJkbHUPGmz-0">
                    <mxGeometry y="70" width="230" height="40" as="geometry"/>
                </mxCell>
                <mxCell id="iDe7jatu5BBJkbHUPGmz-5" value="Author" style="shape=partialRectangle;html=1;whiteSpace=wrap;connectable=0;fillColor=none;top=0;left=0;bottom=0;right=0;overflow=hidden;" vertex="1" parent="iDe7jatu5BBJkbHUPGmz-4">
                    <mxGeometry width="80" height="40" as="geometry"/>
                </mxCell>
                <mxCell id="iDe7jatu5BBJkbHUPGmz-6" value="Augsburger Kenan" style="shape=partialRectangle;html=1;whiteSpace=wrap;connectable=0;fillColor=none;top=0;left=0;bottom=0;right=0;overflow=hidden;" vertex="1" parent="iDe7jatu5BBJkbHUPGmz-4">
                    <mxGeometry x="80" width="150" height="40" as="geometry"/>
                </mxCell>
                <mxCell id="iDe7jatu5BBJkbHUPGmz-7" value="" style="shape=partialRectangle;html=1;whiteSpace=wrap;collapsible=0;dropTarget=0;pointerEvents=0;fillColor=none;top=0;left=0;bottom=0;right=0;points=[[0,0.5],[1,0.5]];portConstraint=eastwest;" vertex="1" parent="iDe7jatu5BBJkbHUPGmz-0">
                    <mxGeometry y="110" width="230" height="40" as="geometry"/>
                </mxCell>
                <mxCell id="iDe7jatu5BBJkbHUPGmz-8" value="Version" style="shape=partialRectangle;html=1;whiteSpace=wrap;connectable=0;fillColor=none;top=0;left=0;bottom=0;right=0;overflow=hidden;" vertex="1" parent="iDe7jatu5BBJkbHUPGmz-7">
                    <mxGeometry width="80" height="40" as="geometry"/>
                </mxCell>
                <mxCell id="iDe7jatu5BBJkbHUPGmz-9" value="0.1" style="shape=partialRectangle;html=1;whiteSpace=wrap;connectable=0;fillColor=none;top=0;left=0;bottom=0;right=0;overflow=hidden;" vertex="1" parent="iDe7jatu5BBJkbHUPGmz-7">
                    <mxGeometry x="80" width="150" height="40" as="geometry"/>
                </mxCell>
                <mxCell id="iDe7jatu5BBJkbHUPGmz-10" value="" style="shape=partialRectangle;html=1;whiteSpace=wrap;collapsible=0;dropTarget=0;pointerEvents=0;fillColor=none;top=0;left=0;bottom=0;right=0;points=[[0,0.5],[1,0.5]];portConstraint=eastwest;" vertex="1" parent="iDe7jatu5BBJkbHUPGmz-0">
                    <mxGeometry y="150" width="230" height="40" as="geometry"/>
                </mxCell>
                <mxCell id="iDe7jatu5BBJkbHUPGmz-11" value="Date" style="shape=partialRectangle;html=1;whiteSpace=wrap;connectable=0;fillColor=none;top=0;left=0;bottom=0;right=0;overflow=hidden;" vertex="1" parent="iDe7jatu5BBJkbHUPGmz-10">
                    <mxGeometry width="80" height="40" as="geometry"/>
                </mxCell>
                <mxCell id="iDe7jatu5BBJkbHUPGmz-12" value="06/02/2021" style="shape=partialRectangle;html=1;whiteSpace=wrap;connectable=0;fillColor=none;top=0;left=0;bottom=0;right=0;overflow=hidden;" vertex="1" parent="iDe7jatu5BBJkbHUPGmz-10">
                    <mxGeometry x="80" width="150" height="40" as="geometry"/>
                </mxCell>
            </root>
        </mxGraphModel>
    </diagram>
    <diagram name="Account creation" id="N62X5_aBkXc2SGly5wcE">
        <mxGraphModel dx="2638" dy="1177" grid="1" gridSize="10" guides="1" tooltips="1" connect="1" arrows="1" fold="1" page="1" pageScale="1" pageWidth="827" pageHeight="1169" math="0" shadow="0">
            <root>
                <mxCell id="mf3THlPet4axh_WSRdjs-0"/>
                <mxCell id="mf3THlPet4axh_WSRdjs-1" parent="mf3THlPet4axh_WSRdjs-0"/>
                <mxCell id="mf3THlPet4axh_WSRdjs-2" value="" style="strokeWidth=1;shadow=0;dashed=0;align=center;html=1;shape=mxgraph.mockup.containers.browserWindow;rSize=0;strokeColor=#666666;strokeColor2=#008cff;strokeColor3=#c4c4c4;mainText=,;recursiveResize=0;" vertex="1" parent="mf3THlPet4axh_WSRdjs-1">
                    <mxGeometry y="40" width="1280" height="720" as="geometry"/>
                </mxCell>
                <mxCell id="mf3THlPet4axh_WSRdjs-3" value="Page 1" style="strokeWidth=1;shadow=0;dashed=0;align=center;html=1;shape=mxgraph.mockup.containers.anchor;fontSize=17;fontColor=#666666;align=left;" vertex="1" parent="mf3THlPet4axh_WSRdjs-2">
                    <mxGeometry x="60" y="12" width="110" height="26" as="geometry"/>
                </mxCell>
                <mxCell id="mf3THlPet4axh_WSRdjs-4" value="https://www.draw.io" style="strokeWidth=1;shadow=0;dashed=0;align=center;html=1;shape=mxgraph.mockup.containers.anchor;rSize=0;fontSize=17;fontColor=#666666;align=left;" vertex="1" parent="mf3THlPet4axh_WSRdjs-2">
                    <mxGeometry x="130" y="60" width="250" height="26" as="geometry"/>
                </mxCell>
                <mxCell id="mf3THlPet4axh_WSRdjs-5" value="Navigation" style="rounded=0;whiteSpace=wrap;html=1;fillColor=#dae8fc;strokeColor=#6c8ebf;" vertex="1" parent="mf3THlPet4axh_WSRdjs-2">
                    <mxGeometry y="110" width="1280" height="60" as="geometry"/>
                </mxCell>
                <mxCell id="mf3THlPet4axh_WSRdjs-6" value="" style="rounded=0;whiteSpace=wrap;html=1;" vertex="1" parent="mf3THlPet4axh_WSRdjs-2">
                    <mxGeometry y="170" width="1280" height="490" as="geometry"/>
                </mxCell>
                <mxCell id="mf3THlPet4axh_WSRdjs-7" value="Footer" style="rounded=0;whiteSpace=wrap;html=1;fillColor=#e1d5e7;strokeColor=#9673a6;" vertex="1" parent="mf3THlPet4axh_WSRdjs-2">
                    <mxGeometry y="660" width="1280" height="60" as="geometry"/>
                </mxCell>
                <mxCell id="7svyu3bzGCg2nqL7y_oy-0" value="" style="whiteSpace=wrap;html=1;fillColor=#fff2cc;strokeColor=#d6b656;" vertex="1" parent="mf3THlPet4axh_WSRdjs-2">
                    <mxGeometry x="360" y="170" width="560" height="490" as="geometry"/>
                </mxCell>
                <mxCell id="7svyu3bzGCg2nqL7y_oy-1" value="Form" style="whiteSpace=wrap;html=1;fillColor=#f8cecc;strokeColor=#b85450;" vertex="1" parent="mf3THlPet4axh_WSRdjs-2">
                    <mxGeometry x="430" y="230" width="420" height="300" as="geometry"/>
                </mxCell>
                <mxCell id="7svyu3bzGCg2nqL7y_oy-2" value="Confirm" style="whiteSpace=wrap;html=1;fillColor=#f8cecc;strokeColor=#b85450;" vertex="1" parent="mf3THlPet4axh_WSRdjs-2">
                    <mxGeometry x="430" y="560" width="420" height="60" as="geometry"/>
                </mxCell>
                <mxCell id="7svyu3bzGCg2nqL7y_oy-6" value="controls" style="rounded=0;whiteSpace=wrap;html=1;fillColor=#d5e8d4;strokeColor=#82b366;" vertex="1" parent="mf3THlPet4axh_WSRdjs-2">
                    <mxGeometry x="430" y="180" width="420" height="40" as="geometry"/>
                </mxCell>
                <mxCell id="mf3THlPet4axh_WSRdjs-8" value="" style="strokeWidth=1;shadow=0;dashed=0;align=center;html=1;shape=mxgraph.mockup.containers.browserWindow;rSize=0;strokeColor=#666666;strokeColor2=#008cff;strokeColor3=#c4c4c4;mainText=,;recursiveResize=0;" vertex="1" parent="mf3THlPet4axh_WSRdjs-1">
                    <mxGeometry x="1300" y="40" width="380" height="812" as="geometry"/>
                </mxCell>
                <mxCell id="7svyu3bzGCg2nqL7y_oy-5" value="" style="whiteSpace=wrap;html=1;fillColor=#fff2cc;strokeColor=#d6b656;" vertex="1" parent="mf3THlPet4axh_WSRdjs-8">
                    <mxGeometry y="170" width="380" height="590" as="geometry"/>
                </mxCell>
                <mxCell id="mf3THlPet4axh_WSRdjs-9" value="Page 1" style="strokeWidth=1;shadow=0;dashed=0;align=center;html=1;shape=mxgraph.mockup.containers.anchor;fontSize=17;fontColor=#666666;align=left;" vertex="1" parent="mf3THlPet4axh_WSRdjs-8">
                    <mxGeometry x="60" y="12" width="110" height="26" as="geometry"/>
                </mxCell>
                <mxCell id="mf3THlPet4axh_WSRdjs-10" value="https://www.draw.io" style="strokeWidth=1;shadow=0;dashed=0;align=center;html=1;shape=mxgraph.mockup.containers.anchor;rSize=0;fontSize=17;fontColor=#666666;align=left;" vertex="1" parent="mf3THlPet4axh_WSRdjs-8">
                    <mxGeometry x="130" y="60" width="250" height="26" as="geometry"/>
                </mxCell>
                <mxCell id="mf3THlPet4axh_WSRdjs-11" value="Navigation" style="rounded=0;whiteSpace=wrap;html=1;fillColor=#dae8fc;strokeColor=#6c8ebf;" vertex="1" parent="mf3THlPet4axh_WSRdjs-8">
                    <mxGeometry y="110" width="380" height="60" as="geometry"/>
                </mxCell>
                <mxCell id="mf3THlPet4axh_WSRdjs-12" value="Footer" style="rounded=0;whiteSpace=wrap;html=1;fillColor=#e1d5e7;strokeColor=#9673a6;" vertex="1" parent="mf3THlPet4axh_WSRdjs-8">
                    <mxGeometry y="752" width="380" height="60" as="geometry"/>
                </mxCell>
                <mxCell id="7svyu3bzGCg2nqL7y_oy-3" value="Form" style="whiteSpace=wrap;html=1;fillColor=#f8cecc;strokeColor=#b85450;" vertex="1" parent="mf3THlPet4axh_WSRdjs-8">
                    <mxGeometry y="270" width="380" height="380" as="geometry"/>
                </mxCell>
                <mxCell id="7svyu3bzGCg2nqL7y_oy-4" value="Confirm" style="whiteSpace=wrap;html=1;fillColor=#f8cecc;strokeColor=#b85450;" vertex="1" parent="mf3THlPet4axh_WSRdjs-8">
                    <mxGeometry y="670" width="380" height="60" as="geometry"/>
                </mxCell>
                <mxCell id="7svyu3bzGCg2nqL7y_oy-7" value="controls" style="rounded=0;whiteSpace=wrap;html=1;fillColor=#d5e8d4;strokeColor=#82b366;" vertex="1" parent="mf3THlPet4axh_WSRdjs-8">
                    <mxGeometry y="190" width="380" height="60" as="geometry"/>
                </mxCell>
                <mxCell id="mf3THlPet4axh_WSRdjs-13" value="Phone layout" style="text;html=1;align=center;verticalAlign=middle;resizable=0;points=[];autosize=1;" vertex="1" parent="mf3THlPet4axh_WSRdjs-1">
                    <mxGeometry x="1442.5" y="10" width="90" height="20" as="geometry"/>
                </mxCell>
                <mxCell id="mf3THlPet4axh_WSRdjs-14" value="PC layout" style="text;html=1;align=center;verticalAlign=middle;resizable=0;points=[];autosize=1;" vertex="1" parent="mf3THlPet4axh_WSRdjs-1">
                    <mxGeometry x="605" y="10" width="70" height="20" as="geometry"/>
                </mxCell>
                <mxCell id="IKuEOSVKQyZfa8LxTFaf-0" value="Cartridge" style="shape=table;html=1;whiteSpace=wrap;startSize=30;container=1;collapsible=0;childLayout=tableLayout;fontStyle=1;align=center;" vertex="1" parent="mf3THlPet4axh_WSRdjs-1">
                    <mxGeometry x="40" y="800" width="230" height="190" as="geometry"/>
                </mxCell>
                <mxCell id="IKuEOSVKQyZfa8LxTFaf-1" style="shape=partialRectangle;html=1;whiteSpace=wrap;collapsible=0;dropTarget=0;pointerEvents=0;fillColor=none;top=0;left=0;bottom=0;right=0;points=[[0,0.5],[1,0.5]];portConstraint=eastwest;" vertex="1" parent="IKuEOSVKQyZfa8LxTFaf-0">
                    <mxGeometry y="30" width="230" height="40" as="geometry"/>
                </mxCell>
                <mxCell id="IKuEOSVKQyZfa8LxTFaf-2" value="Project" style="shape=partialRectangle;html=1;whiteSpace=wrap;connectable=0;fillColor=none;top=0;left=0;bottom=0;right=0;overflow=hidden;" vertex="1" parent="IKuEOSVKQyZfa8LxTFaf-1">
                    <mxGeometry width="80" height="40" as="geometry"/>
                </mxCell>
                <mxCell id="IKuEOSVKQyZfa8LxTFaf-3" value="Observation web-project" style="shape=partialRectangle;html=1;whiteSpace=wrap;connectable=0;fillColor=none;top=0;left=0;bottom=0;right=0;overflow=hidden;" vertex="1" parent="IKuEOSVKQyZfa8LxTFaf-1">
                    <mxGeometry x="80" width="150" height="40" as="geometry"/>
                </mxCell>
                <mxCell id="IKuEOSVKQyZfa8LxTFaf-4" value="" style="shape=partialRectangle;html=1;whiteSpace=wrap;collapsible=0;dropTarget=0;pointerEvents=0;fillColor=none;top=0;left=0;bottom=0;right=0;points=[[0,0.5],[1,0.5]];portConstraint=eastwest;" vertex="1" parent="IKuEOSVKQyZfa8LxTFaf-0">
                    <mxGeometry y="70" width="230" height="40" as="geometry"/>
                </mxCell>
                <mxCell id="IKuEOSVKQyZfa8LxTFaf-5" value="Author" style="shape=partialRectangle;html=1;whiteSpace=wrap;connectable=0;fillColor=none;top=0;left=0;bottom=0;right=0;overflow=hidden;" vertex="1" parent="IKuEOSVKQyZfa8LxTFaf-4">
                    <mxGeometry width="80" height="40" as="geometry"/>
                </mxCell>
                <mxCell id="IKuEOSVKQyZfa8LxTFaf-6" value="Augsburger Kenan" style="shape=partialRectangle;html=1;whiteSpace=wrap;connectable=0;fillColor=none;top=0;left=0;bottom=0;right=0;overflow=hidden;" vertex="1" parent="IKuEOSVKQyZfa8LxTFaf-4">
                    <mxGeometry x="80" width="150" height="40" as="geometry"/>
                </mxCell>
                <mxCell id="IKuEOSVKQyZfa8LxTFaf-7" value="" style="shape=partialRectangle;html=1;whiteSpace=wrap;collapsible=0;dropTarget=0;pointerEvents=0;fillColor=none;top=0;left=0;bottom=0;right=0;points=[[0,0.5],[1,0.5]];portConstraint=eastwest;" vertex="1" parent="IKuEOSVKQyZfa8LxTFaf-0">
                    <mxGeometry y="110" width="230" height="40" as="geometry"/>
                </mxCell>
                <mxCell id="IKuEOSVKQyZfa8LxTFaf-8" value="Version" style="shape=partialRectangle;html=1;whiteSpace=wrap;connectable=0;fillColor=none;top=0;left=0;bottom=0;right=0;overflow=hidden;" vertex="1" parent="IKuEOSVKQyZfa8LxTFaf-7">
                    <mxGeometry width="80" height="40" as="geometry"/>
                </mxCell>
                <mxCell id="IKuEOSVKQyZfa8LxTFaf-9" value="0.1" style="shape=partialRectangle;html=1;whiteSpace=wrap;connectable=0;fillColor=none;top=0;left=0;bottom=0;right=0;overflow=hidden;" vertex="1" parent="IKuEOSVKQyZfa8LxTFaf-7">
                    <mxGeometry x="80" width="150" height="40" as="geometry"/>
                </mxCell>
                <mxCell id="IKuEOSVKQyZfa8LxTFaf-10" value="" style="shape=partialRectangle;html=1;whiteSpace=wrap;collapsible=0;dropTarget=0;pointerEvents=0;fillColor=none;top=0;left=0;bottom=0;right=0;points=[[0,0.5],[1,0.5]];portConstraint=eastwest;" vertex="1" parent="IKuEOSVKQyZfa8LxTFaf-0">
                    <mxGeometry y="150" width="230" height="40" as="geometry"/>
                </mxCell>
                <mxCell id="IKuEOSVKQyZfa8LxTFaf-11" value="Date" style="shape=partialRectangle;html=1;whiteSpace=wrap;connectable=0;fillColor=none;top=0;left=0;bottom=0;right=0;overflow=hidden;" vertex="1" parent="IKuEOSVKQyZfa8LxTFaf-10">
                    <mxGeometry width="80" height="40" as="geometry"/>
                </mxCell>
                <mxCell id="IKuEOSVKQyZfa8LxTFaf-12" value="06/02/2021" style="shape=partialRectangle;html=1;whiteSpace=wrap;connectable=0;fillColor=none;top=0;left=0;bottom=0;right=0;overflow=hidden;" vertex="1" parent="IKuEOSVKQyZfa8LxTFaf-10">
                    <mxGeometry x="80" width="150" height="40" as="geometry"/>
                </mxCell>
            </root>
        </mxGraphModel>
    </diagram>
    <diagram name="Login" id="Y3rbOnj-jdHL1n0ep-RY">
        <mxGraphModel dx="2638" dy="1177" grid="1" gridSize="10" guides="1" tooltips="1" connect="1" arrows="1" fold="1" page="1" pageScale="1" pageWidth="827" pageHeight="1169" math="0" shadow="0">
            <root>
                <mxCell id="P1n2ZWIrqQD9Ibzgnt5R-0"/>
                <mxCell id="P1n2ZWIrqQD9Ibzgnt5R-1" parent="P1n2ZWIrqQD9Ibzgnt5R-0"/>
                <mxCell id="P1n2ZWIrqQD9Ibzgnt5R-2" value="" style="strokeWidth=1;shadow=0;dashed=0;align=center;html=1;shape=mxgraph.mockup.containers.browserWindow;rSize=0;strokeColor=#666666;strokeColor2=#008cff;strokeColor3=#c4c4c4;mainText=,;recursiveResize=0;" vertex="1" parent="P1n2ZWIrqQD9Ibzgnt5R-1">
                    <mxGeometry y="40" width="1280" height="720" as="geometry"/>
                </mxCell>
                <mxCell id="P1n2ZWIrqQD9Ibzgnt5R-3" value="Page 1" style="strokeWidth=1;shadow=0;dashed=0;align=center;html=1;shape=mxgraph.mockup.containers.anchor;fontSize=17;fontColor=#666666;align=left;" vertex="1" parent="P1n2ZWIrqQD9Ibzgnt5R-2">
                    <mxGeometry x="60" y="12" width="110" height="26" as="geometry"/>
                </mxCell>
                <mxCell id="P1n2ZWIrqQD9Ibzgnt5R-4" value="https://www.draw.io" style="strokeWidth=1;shadow=0;dashed=0;align=center;html=1;shape=mxgraph.mockup.containers.anchor;rSize=0;fontSize=17;fontColor=#666666;align=left;" vertex="1" parent="P1n2ZWIrqQD9Ibzgnt5R-2">
                    <mxGeometry x="130" y="60" width="250" height="26" as="geometry"/>
                </mxCell>
                <mxCell id="P1n2ZWIrqQD9Ibzgnt5R-5" value="Navigation" style="rounded=0;whiteSpace=wrap;html=1;fillColor=#dae8fc;strokeColor=#6c8ebf;" vertex="1" parent="P1n2ZWIrqQD9Ibzgnt5R-2">
                    <mxGeometry y="110" width="1280" height="60" as="geometry"/>
                </mxCell>
                <mxCell id="P1n2ZWIrqQD9Ibzgnt5R-6" value="" style="rounded=0;whiteSpace=wrap;html=1;" vertex="1" parent="P1n2ZWIrqQD9Ibzgnt5R-2">
                    <mxGeometry y="170" width="1280" height="490" as="geometry"/>
                </mxCell>
                <mxCell id="P1n2ZWIrqQD9Ibzgnt5R-7" value="Footer" style="rounded=0;whiteSpace=wrap;html=1;fillColor=#e1d5e7;strokeColor=#9673a6;" vertex="1" parent="P1n2ZWIrqQD9Ibzgnt5R-2">
                    <mxGeometry y="660" width="1280" height="60" as="geometry"/>
                </mxCell>
                <mxCell id="P1n2ZWIrqQD9Ibzgnt5R-8" value="" style="whiteSpace=wrap;html=1;fillColor=#fff2cc;strokeColor=#d6b656;" vertex="1" parent="P1n2ZWIrqQD9Ibzgnt5R-2">
                    <mxGeometry x="360" y="170" width="560" height="490" as="geometry"/>
                </mxCell>
                <mxCell id="P1n2ZWIrqQD9Ibzgnt5R-9" value="Form" style="whiteSpace=wrap;html=1;fillColor=#f8cecc;strokeColor=#b85450;" vertex="1" parent="P1n2ZWIrqQD9Ibzgnt5R-2">
                    <mxGeometry x="480" y="320" width="320" height="140" as="geometry"/>
                </mxCell>
                <mxCell id="P1n2ZWIrqQD9Ibzgnt5R-10" value="Confirm" style="whiteSpace=wrap;html=1;fillColor=#f8cecc;strokeColor=#b85450;" vertex="1" parent="P1n2ZWIrqQD9Ibzgnt5R-2">
                    <mxGeometry x="480" y="510" width="320" height="60" as="geometry"/>
                </mxCell>
                <mxCell id="P1n2ZWIrqQD9Ibzgnt5R-11" value="controls" style="rounded=0;whiteSpace=wrap;html=1;fillColor=#d5e8d4;strokeColor=#82b366;" vertex="1" parent="P1n2ZWIrqQD9Ibzgnt5R-2">
                    <mxGeometry x="430" y="190" width="420" height="40" as="geometry"/>
                </mxCell>
                <mxCell id="P1n2ZWIrqQD9Ibzgnt5R-12" value="" style="strokeWidth=1;shadow=0;dashed=0;align=center;html=1;shape=mxgraph.mockup.containers.browserWindow;rSize=0;strokeColor=#666666;strokeColor2=#008cff;strokeColor3=#c4c4c4;mainText=,;recursiveResize=0;" vertex="1" parent="P1n2ZWIrqQD9Ibzgnt5R-1">
                    <mxGeometry x="1300" y="40" width="380" height="812" as="geometry"/>
                </mxCell>
                <mxCell id="P1n2ZWIrqQD9Ibzgnt5R-13" value="" style="whiteSpace=wrap;html=1;fillColor=#fff2cc;strokeColor=#d6b656;" vertex="1" parent="P1n2ZWIrqQD9Ibzgnt5R-12">
                    <mxGeometry y="170" width="380" height="590" as="geometry"/>
                </mxCell>
                <mxCell id="P1n2ZWIrqQD9Ibzgnt5R-14" value="Page 1" style="strokeWidth=1;shadow=0;dashed=0;align=center;html=1;shape=mxgraph.mockup.containers.anchor;fontSize=17;fontColor=#666666;align=left;" vertex="1" parent="P1n2ZWIrqQD9Ibzgnt5R-12">
                    <mxGeometry x="60" y="12" width="110" height="26" as="geometry"/>
                </mxCell>
                <mxCell id="P1n2ZWIrqQD9Ibzgnt5R-15" value="https://www.draw.io" style="strokeWidth=1;shadow=0;dashed=0;align=center;html=1;shape=mxgraph.mockup.containers.anchor;rSize=0;fontSize=17;fontColor=#666666;align=left;" vertex="1" parent="P1n2ZWIrqQD9Ibzgnt5R-12">
                    <mxGeometry x="130" y="60" width="250" height="26" as="geometry"/>
                </mxCell>
                <mxCell id="P1n2ZWIrqQD9Ibzgnt5R-16" value="Navigation" style="rounded=0;whiteSpace=wrap;html=1;fillColor=#dae8fc;strokeColor=#6c8ebf;" vertex="1" parent="P1n2ZWIrqQD9Ibzgnt5R-12">
                    <mxGeometry y="110" width="380" height="60" as="geometry"/>
                </mxCell>
                <mxCell id="P1n2ZWIrqQD9Ibzgnt5R-17" value="Footer" style="rounded=0;whiteSpace=wrap;html=1;fillColor=#e1d5e7;strokeColor=#9673a6;" vertex="1" parent="P1n2ZWIrqQD9Ibzgnt5R-12">
                    <mxGeometry y="752" width="380" height="60" as="geometry"/>
                </mxCell>
                <mxCell id="P1n2ZWIrqQD9Ibzgnt5R-18" value="Form" style="whiteSpace=wrap;html=1;fillColor=#f8cecc;strokeColor=#b85450;" vertex="1" parent="P1n2ZWIrqQD9Ibzgnt5R-12">
                    <mxGeometry y="270" width="380" height="380" as="geometry"/>
                </mxCell>
                <mxCell id="P1n2ZWIrqQD9Ibzgnt5R-19" value="Confirm" style="whiteSpace=wrap;html=1;fillColor=#f8cecc;strokeColor=#b85450;" vertex="1" parent="P1n2ZWIrqQD9Ibzgnt5R-12">
                    <mxGeometry y="670" width="380" height="60" as="geometry"/>
                </mxCell>
                <mxCell id="P1n2ZWIrqQD9Ibzgnt5R-20" value="controls" style="rounded=0;whiteSpace=wrap;html=1;fillColor=#d5e8d4;strokeColor=#82b366;" vertex="1" parent="P1n2ZWIrqQD9Ibzgnt5R-12">
                    <mxGeometry y="190" width="380" height="60" as="geometry"/>
                </mxCell>
                <mxCell id="P1n2ZWIrqQD9Ibzgnt5R-21" value="Phone layout" style="text;html=1;align=center;verticalAlign=middle;resizable=0;points=[];autosize=1;" vertex="1" parent="P1n2ZWIrqQD9Ibzgnt5R-1">
                    <mxGeometry x="1442.5" y="10" width="90" height="20" as="geometry"/>
                </mxCell>
                <mxCell id="P1n2ZWIrqQD9Ibzgnt5R-22" value="PC layout" style="text;html=1;align=center;verticalAlign=middle;resizable=0;points=[];autosize=1;" vertex="1" parent="P1n2ZWIrqQD9Ibzgnt5R-1">
                    <mxGeometry x="605" y="10" width="70" height="20" as="geometry"/>
                </mxCell>
                <mxCell id="BJDVfoZj2AtD6lJqe_iD-0" value="Cartridge" style="shape=table;html=1;whiteSpace=wrap;startSize=30;container=1;collapsible=0;childLayout=tableLayout;fontStyle=1;align=center;" vertex="1" parent="P1n2ZWIrqQD9Ibzgnt5R-1">
                    <mxGeometry x="40" y="800" width="230" height="190" as="geometry"/>
                </mxCell>
                <mxCell id="BJDVfoZj2AtD6lJqe_iD-1" style="shape=partialRectangle;html=1;whiteSpace=wrap;collapsible=0;dropTarget=0;pointerEvents=0;fillColor=none;top=0;left=0;bottom=0;right=0;points=[[0,0.5],[1,0.5]];portConstraint=eastwest;" vertex="1" parent="BJDVfoZj2AtD6lJqe_iD-0">
                    <mxGeometry y="30" width="230" height="40" as="geometry"/>
                </mxCell>
                <mxCell id="BJDVfoZj2AtD6lJqe_iD-2" value="Project" style="shape=partialRectangle;html=1;whiteSpace=wrap;connectable=0;fillColor=none;top=0;left=0;bottom=0;right=0;overflow=hidden;" vertex="1" parent="BJDVfoZj2AtD6lJqe_iD-1">
                    <mxGeometry width="80" height="40" as="geometry"/>
                </mxCell>
                <mxCell id="BJDVfoZj2AtD6lJqe_iD-3" value="Observation web-project" style="shape=partialRectangle;html=1;whiteSpace=wrap;connectable=0;fillColor=none;top=0;left=0;bottom=0;right=0;overflow=hidden;" vertex="1" parent="BJDVfoZj2AtD6lJqe_iD-1">
                    <mxGeometry x="80" width="150" height="40" as="geometry"/>
                </mxCell>
                <mxCell id="BJDVfoZj2AtD6lJqe_iD-4" value="" style="shape=partialRectangle;html=1;whiteSpace=wrap;collapsible=0;dropTarget=0;pointerEvents=0;fillColor=none;top=0;left=0;bottom=0;right=0;points=[[0,0.5],[1,0.5]];portConstraint=eastwest;" vertex="1" parent="BJDVfoZj2AtD6lJqe_iD-0">
                    <mxGeometry y="70" width="230" height="40" as="geometry"/>
                </mxCell>
                <mxCell id="BJDVfoZj2AtD6lJqe_iD-5" value="Author" style="shape=partialRectangle;html=1;whiteSpace=wrap;connectable=0;fillColor=none;top=0;left=0;bottom=0;right=0;overflow=hidden;" vertex="1" parent="BJDVfoZj2AtD6lJqe_iD-4">
                    <mxGeometry width="80" height="40" as="geometry"/>
                </mxCell>
                <mxCell id="BJDVfoZj2AtD6lJqe_iD-6" value="Augsburger Kenan" style="shape=partialRectangle;html=1;whiteSpace=wrap;connectable=0;fillColor=none;top=0;left=0;bottom=0;right=0;overflow=hidden;" vertex="1" parent="BJDVfoZj2AtD6lJqe_iD-4">
                    <mxGeometry x="80" width="150" height="40" as="geometry"/>
                </mxCell>
                <mxCell id="BJDVfoZj2AtD6lJqe_iD-7" value="" style="shape=partialRectangle;html=1;whiteSpace=wrap;collapsible=0;dropTarget=0;pointerEvents=0;fillColor=none;top=0;left=0;bottom=0;right=0;points=[[0,0.5],[1,0.5]];portConstraint=eastwest;" vertex="1" parent="BJDVfoZj2AtD6lJqe_iD-0">
                    <mxGeometry y="110" width="230" height="40" as="geometry"/>
                </mxCell>
                <mxCell id="BJDVfoZj2AtD6lJqe_iD-8" value="Version" style="shape=partialRectangle;html=1;whiteSpace=wrap;connectable=0;fillColor=none;top=0;left=0;bottom=0;right=0;overflow=hidden;" vertex="1" parent="BJDVfoZj2AtD6lJqe_iD-7">
                    <mxGeometry width="80" height="40" as="geometry"/>
                </mxCell>
                <mxCell id="BJDVfoZj2AtD6lJqe_iD-9" value="0.1" style="shape=partialRectangle;html=1;whiteSpace=wrap;connectable=0;fillColor=none;top=0;left=0;bottom=0;right=0;overflow=hidden;" vertex="1" parent="BJDVfoZj2AtD6lJqe_iD-7">
                    <mxGeometry x="80" width="150" height="40" as="geometry"/>
                </mxCell>
                <mxCell id="BJDVfoZj2AtD6lJqe_iD-10" value="" style="shape=partialRectangle;html=1;whiteSpace=wrap;collapsible=0;dropTarget=0;pointerEvents=0;fillColor=none;top=0;left=0;bottom=0;right=0;points=[[0,0.5],[1,0.5]];portConstraint=eastwest;" vertex="1" parent="BJDVfoZj2AtD6lJqe_iD-0">
                    <mxGeometry y="150" width="230" height="40" as="geometry"/>
                </mxCell>
                <mxCell id="BJDVfoZj2AtD6lJqe_iD-11" value="Date" style="shape=partialRectangle;html=1;whiteSpace=wrap;connectable=0;fillColor=none;top=0;left=0;bottom=0;right=0;overflow=hidden;" vertex="1" parent="BJDVfoZj2AtD6lJqe_iD-10">
                    <mxGeometry width="80" height="40" as="geometry"/>
                </mxCell>
                <mxCell id="BJDVfoZj2AtD6lJqe_iD-12" value="06/02/2021" style="shape=partialRectangle;html=1;whiteSpace=wrap;connectable=0;fillColor=none;top=0;left=0;bottom=0;right=0;overflow=hidden;" vertex="1" parent="BJDVfoZj2AtD6lJqe_iD-10">
                    <mxGeometry x="80" width="150" height="40" as="geometry"/>
                </mxCell>
            </root>
        </mxGraphModel>
    </diagram>
    <diagram name="Contact form" id="9iEyymd7YGsy7PSWkJRL">
        <mxGraphModel dx="2638" dy="1177" grid="1" gridSize="10" guides="1" tooltips="1" connect="1" arrows="1" fold="1" page="1" pageScale="1" pageWidth="827" pageHeight="1169" math="0" shadow="0">
            <root>
                <mxCell id="TEMqzptA36Gcr8eQdYis-0"/>
                <mxCell id="TEMqzptA36Gcr8eQdYis-1" parent="TEMqzptA36Gcr8eQdYis-0"/>
                <mxCell id="TEMqzptA36Gcr8eQdYis-2" value="" style="strokeWidth=1;shadow=0;dashed=0;align=center;html=1;shape=mxgraph.mockup.containers.browserWindow;rSize=0;strokeColor=#666666;strokeColor2=#008cff;strokeColor3=#c4c4c4;mainText=,;recursiveResize=0;" vertex="1" parent="TEMqzptA36Gcr8eQdYis-1">
                    <mxGeometry y="40" width="1280" height="720" as="geometry"/>
                </mxCell>
                <mxCell id="TEMqzptA36Gcr8eQdYis-3" value="Page 1" style="strokeWidth=1;shadow=0;dashed=0;align=center;html=1;shape=mxgraph.mockup.containers.anchor;fontSize=17;fontColor=#666666;align=left;" vertex="1" parent="TEMqzptA36Gcr8eQdYis-2">
                    <mxGeometry x="60" y="12" width="110" height="26" as="geometry"/>
                </mxCell>
                <mxCell id="TEMqzptA36Gcr8eQdYis-4" value="https://www.draw.io" style="strokeWidth=1;shadow=0;dashed=0;align=center;html=1;shape=mxgraph.mockup.containers.anchor;rSize=0;fontSize=17;fontColor=#666666;align=left;" vertex="1" parent="TEMqzptA36Gcr8eQdYis-2">
                    <mxGeometry x="130" y="60" width="250" height="26" as="geometry"/>
                </mxCell>
                <mxCell id="TEMqzptA36Gcr8eQdYis-5" value="Navigation" style="rounded=0;whiteSpace=wrap;html=1;fillColor=#dae8fc;strokeColor=#6c8ebf;" vertex="1" parent="TEMqzptA36Gcr8eQdYis-2">
                    <mxGeometry y="110" width="1280" height="60" as="geometry"/>
                </mxCell>
                <mxCell id="TEMqzptA36Gcr8eQdYis-6" value="" style="rounded=0;whiteSpace=wrap;html=1;" vertex="1" parent="TEMqzptA36Gcr8eQdYis-2">
                    <mxGeometry y="170" width="1280" height="490" as="geometry"/>
                </mxCell>
                <mxCell id="TEMqzptA36Gcr8eQdYis-7" value="Footer" style="rounded=0;whiteSpace=wrap;html=1;fillColor=#e1d5e7;strokeColor=#9673a6;" vertex="1" parent="TEMqzptA36Gcr8eQdYis-2">
                    <mxGeometry y="660" width="1280" height="60" as="geometry"/>
                </mxCell>
                <mxCell id="TEMqzptA36Gcr8eQdYis-8" value="" style="whiteSpace=wrap;html=1;fillColor=#fff2cc;strokeColor=#d6b656;" vertex="1" parent="TEMqzptA36Gcr8eQdYis-2">
                    <mxGeometry x="360" y="170" width="560" height="490" as="geometry"/>
                </mxCell>
                <mxCell id="TEMqzptA36Gcr8eQdYis-9" value="Form" style="whiteSpace=wrap;html=1;fillColor=#f8cecc;strokeColor=#b85450;" vertex="1" parent="TEMqzptA36Gcr8eQdYis-2">
                    <mxGeometry x="430" y="230" width="420" height="300" as="geometry"/>
                </mxCell>
                <mxCell id="TEMqzptA36Gcr8eQdYis-10" value="Confirm" style="whiteSpace=wrap;html=1;fillColor=#f8cecc;strokeColor=#b85450;" vertex="1" parent="TEMqzptA36Gcr8eQdYis-2">
                    <mxGeometry x="430" y="560" width="420" height="60" as="geometry"/>
                </mxCell>
                <mxCell id="TEMqzptA36Gcr8eQdYis-12" value="" style="strokeWidth=1;shadow=0;dashed=0;align=center;html=1;shape=mxgraph.mockup.containers.browserWindow;rSize=0;strokeColor=#666666;strokeColor2=#008cff;strokeColor3=#c4c4c4;mainText=,;recursiveResize=0;" vertex="1" parent="TEMqzptA36Gcr8eQdYis-1">
                    <mxGeometry x="1300" y="40" width="380" height="812" as="geometry"/>
                </mxCell>
                <mxCell id="TEMqzptA36Gcr8eQdYis-13" value="" style="whiteSpace=wrap;html=1;fillColor=#fff2cc;strokeColor=#d6b656;" vertex="1" parent="TEMqzptA36Gcr8eQdYis-12">
                    <mxGeometry y="170" width="380" height="590" as="geometry"/>
                </mxCell>
                <mxCell id="TEMqzptA36Gcr8eQdYis-14" value="Page 1" style="strokeWidth=1;shadow=0;dashed=0;align=center;html=1;shape=mxgraph.mockup.containers.anchor;fontSize=17;fontColor=#666666;align=left;" vertex="1" parent="TEMqzptA36Gcr8eQdYis-12">
                    <mxGeometry x="60" y="12" width="110" height="26" as="geometry"/>
                </mxCell>
                <mxCell id="TEMqzptA36Gcr8eQdYis-15" value="https://www.draw.io" style="strokeWidth=1;shadow=0;dashed=0;align=center;html=1;shape=mxgraph.mockup.containers.anchor;rSize=0;fontSize=17;fontColor=#666666;align=left;" vertex="1" parent="TEMqzptA36Gcr8eQdYis-12">
                    <mxGeometry x="130" y="60" width="250" height="26" as="geometry"/>
                </mxCell>
                <mxCell id="TEMqzptA36Gcr8eQdYis-16" value="Navigation" style="rounded=0;whiteSpace=wrap;html=1;fillColor=#dae8fc;strokeColor=#6c8ebf;" vertex="1" parent="TEMqzptA36Gcr8eQdYis-12">
                    <mxGeometry y="110" width="380" height="60" as="geometry"/>
                </mxCell>
                <mxCell id="TEMqzptA36Gcr8eQdYis-17" value="Footer" style="rounded=0;whiteSpace=wrap;html=1;fillColor=#e1d5e7;strokeColor=#9673a6;" vertex="1" parent="TEMqzptA36Gcr8eQdYis-12">
                    <mxGeometry y="752" width="380" height="60" as="geometry"/>
                </mxCell>
                <mxCell id="TEMqzptA36Gcr8eQdYis-18" value="Form" style="whiteSpace=wrap;html=1;fillColor=#f8cecc;strokeColor=#b85450;" vertex="1" parent="TEMqzptA36Gcr8eQdYis-12">
                    <mxGeometry y="190" width="380" height="460" as="geometry"/>
                </mxCell>
                <mxCell id="TEMqzptA36Gcr8eQdYis-19" value="Confirm" style="whiteSpace=wrap;html=1;fillColor=#f8cecc;strokeColor=#b85450;" vertex="1" parent="TEMqzptA36Gcr8eQdYis-12">
                    <mxGeometry y="670" width="380" height="60" as="geometry"/>
                </mxCell>
                <mxCell id="TEMqzptA36Gcr8eQdYis-21" value="Phone layout" style="text;html=1;align=center;verticalAlign=middle;resizable=0;points=[];autosize=1;" vertex="1" parent="TEMqzptA36Gcr8eQdYis-1">
                    <mxGeometry x="1442.5" y="10" width="90" height="20" as="geometry"/>
                </mxCell>
                <mxCell id="TEMqzptA36Gcr8eQdYis-22" value="PC layout" style="text;html=1;align=center;verticalAlign=middle;resizable=0;points=[];autosize=1;" vertex="1" parent="TEMqzptA36Gcr8eQdYis-1">
                    <mxGeometry x="605" y="10" width="70" height="20" as="geometry"/>
                </mxCell>
                <mxCell id="PaubPTS36ruUhAQjN3C7-0" value="Cartridge" style="shape=table;html=1;whiteSpace=wrap;startSize=30;container=1;collapsible=0;childLayout=tableLayout;fontStyle=1;align=center;" vertex="1" parent="TEMqzptA36Gcr8eQdYis-1">
                    <mxGeometry x="40" y="800" width="230" height="190" as="geometry"/>
                </mxCell>
                <mxCell id="PaubPTS36ruUhAQjN3C7-1" style="shape=partialRectangle;html=1;whiteSpace=wrap;collapsible=0;dropTarget=0;pointerEvents=0;fillColor=none;top=0;left=0;bottom=0;right=0;points=[[0,0.5],[1,0.5]];portConstraint=eastwest;" vertex="1" parent="PaubPTS36ruUhAQjN3C7-0">
                    <mxGeometry y="30" width="230" height="40" as="geometry"/>
                </mxCell>
                <mxCell id="PaubPTS36ruUhAQjN3C7-2" value="Project" style="shape=partialRectangle;html=1;whiteSpace=wrap;connectable=0;fillColor=none;top=0;left=0;bottom=0;right=0;overflow=hidden;" vertex="1" parent="PaubPTS36ruUhAQjN3C7-1">
                    <mxGeometry width="80" height="40" as="geometry"/>
                </mxCell>
                <mxCell id="PaubPTS36ruUhAQjN3C7-3" value="Observation web-project" style="shape=partialRectangle;html=1;whiteSpace=wrap;connectable=0;fillColor=none;top=0;left=0;bottom=0;right=0;overflow=hidden;" vertex="1" parent="PaubPTS36ruUhAQjN3C7-1">
                    <mxGeometry x="80" width="150" height="40" as="geometry"/>
                </mxCell>
                <mxCell id="PaubPTS36ruUhAQjN3C7-4" value="" style="shape=partialRectangle;html=1;whiteSpace=wrap;collapsible=0;dropTarget=0;pointerEvents=0;fillColor=none;top=0;left=0;bottom=0;right=0;points=[[0,0.5],[1,0.5]];portConstraint=eastwest;" vertex="1" parent="PaubPTS36ruUhAQjN3C7-0">
                    <mxGeometry y="70" width="230" height="40" as="geometry"/>
                </mxCell>
                <mxCell id="PaubPTS36ruUhAQjN3C7-5" value="Author" style="shape=partialRectangle;html=1;whiteSpace=wrap;connectable=0;fillColor=none;top=0;left=0;bottom=0;right=0;overflow=hidden;" vertex="1" parent="PaubPTS36ruUhAQjN3C7-4">
                    <mxGeometry width="80" height="40" as="geometry"/>
                </mxCell>
                <mxCell id="PaubPTS36ruUhAQjN3C7-6" value="Augsburger Kenan" style="shape=partialRectangle;html=1;whiteSpace=wrap;connectable=0;fillColor=none;top=0;left=0;bottom=0;right=0;overflow=hidden;" vertex="1" parent="PaubPTS36ruUhAQjN3C7-4">
                    <mxGeometry x="80" width="150" height="40" as="geometry"/>
                </mxCell>
                <mxCell id="PaubPTS36ruUhAQjN3C7-7" value="" style="shape=partialRectangle;html=1;whiteSpace=wrap;collapsible=0;dropTarget=0;pointerEvents=0;fillColor=none;top=0;left=0;bottom=0;right=0;points=[[0,0.5],[1,0.5]];portConstraint=eastwest;" vertex="1" parent="PaubPTS36ruUhAQjN3C7-0">
                    <mxGeometry y="110" width="230" height="40" as="geometry"/>
                </mxCell>
                <mxCell id="PaubPTS36ruUhAQjN3C7-8" value="Version" style="shape=partialRectangle;html=1;whiteSpace=wrap;connectable=0;fillColor=none;top=0;left=0;bottom=0;right=0;overflow=hidden;" vertex="1" parent="PaubPTS36ruUhAQjN3C7-7">
                    <mxGeometry width="80" height="40" as="geometry"/>
                </mxCell>
                <mxCell id="PaubPTS36ruUhAQjN3C7-9" value="0.1" style="shape=partialRectangle;html=1;whiteSpace=wrap;connectable=0;fillColor=none;top=0;left=0;bottom=0;right=0;overflow=hidden;" vertex="1" parent="PaubPTS36ruUhAQjN3C7-7">
                    <mxGeometry x="80" width="150" height="40" as="geometry"/>
                </mxCell>
                <mxCell id="PaubPTS36ruUhAQjN3C7-10" value="" style="shape=partialRectangle;html=1;whiteSpace=wrap;collapsible=0;dropTarget=0;pointerEvents=0;fillColor=none;top=0;left=0;bottom=0;right=0;points=[[0,0.5],[1,0.5]];portConstraint=eastwest;" vertex="1" parent="PaubPTS36ruUhAQjN3C7-0">
                    <mxGeometry y="150" width="230" height="40" as="geometry"/>
                </mxCell>
                <mxCell id="PaubPTS36ruUhAQjN3C7-11" value="Date" style="shape=partialRectangle;html=1;whiteSpace=wrap;connectable=0;fillColor=none;top=0;left=0;bottom=0;right=0;overflow=hidden;" vertex="1" parent="PaubPTS36ruUhAQjN3C7-10">
                    <mxGeometry width="80" height="40" as="geometry"/>
                </mxCell>
                <mxCell id="PaubPTS36ruUhAQjN3C7-12" value="06/02/2021" style="shape=partialRectangle;html=1;whiteSpace=wrap;connectable=0;fillColor=none;top=0;left=0;bottom=0;right=0;overflow=hidden;" vertex="1" parent="PaubPTS36ruUhAQjN3C7-10">
                    <mxGeometry x="80" width="150" height="40" as="geometry"/>
                </mxCell>
            </root>
        </mxGraphModel>
    </diagram>
</mxfile>